<svg width="31" height="31" viewBox="0 0 31 31" fill="none" xmlns="http://www.w3.org/2000/svg">
<path d="M24.2646 12.3073H23.8559L22.2596 8.32278C21.9745 7.61432 21.4842 7.00723 20.8516 6.57944C20.219 6.15164 19.473 5.92265 18.7093 5.92186H11.0468C10.1596 5.91932 9.29901 6.22477 8.61194 6.78608C7.92486 7.34739 7.45389 8.12975 7.27941 8.99963L6.61532 12.3073H6.38545C5.36934 12.3073 4.39485 12.7109 3.67635 13.4294C2.95785 14.1479 2.5542 15.1224 2.5542 16.1385V19.9698C2.5542 20.3085 2.68875 20.6333 2.92825 20.8728C3.16775 21.1123 3.49258 21.2469 3.83128 21.2469H5.10837C5.10837 22.263 5.51201 23.2375 6.23051 23.956C6.94901 24.6745 7.9235 25.0781 8.93962 25.0781C9.95573 25.0781 10.9302 24.6745 11.6487 23.956C12.3672 23.2375 12.7709 22.263 12.7709 21.2469H17.8792C17.8792 22.263 18.2828 23.2375 19.0013 23.956C19.7198 24.6745 20.6943 25.0781 21.7104 25.0781C22.7266 25.0781 23.7011 24.6745 24.4196 23.956C25.1381 23.2375 25.5417 22.263 25.5417 21.2469H26.8188C27.1575 21.2469 27.4823 21.1123 27.7218 20.8728C27.9613 20.6333 28.0959 20.3085 28.0959 19.9698V16.1385C28.0959 15.1224 27.6922 14.1479 26.9737 13.4294C26.2552 12.7109 25.2807 12.3073 24.2646 12.3073ZM16.6021 8.47603H18.7093C18.9629 8.47832 19.2101 8.55607 19.4193 8.69935C19.6286 8.84264 19.7904 9.04498 19.8842 9.28059L21.0974 12.3073H16.6021V8.47603ZM9.78249 9.49769C9.8422 9.20489 10.0027 8.94229 10.236 8.75562C10.4694 8.56894 10.7608 8.47 11.0596 8.47603H14.0479V12.3073H9.22057L9.78249 9.49769ZM8.93962 22.5239C8.68703 22.5239 8.44012 22.449 8.23011 22.3087C8.02009 22.1684 7.8564 21.9689 7.75974 21.7356C7.66308 21.5022 7.63779 21.2454 7.68707 20.9977C7.73635 20.75 7.85798 20.5224 8.03658 20.3438C8.21518 20.1652 8.44274 20.0436 8.69047 19.9943C8.9382 19.945 9.19498 19.9703 9.42833 20.067C9.66169 20.1636 9.86114 20.3273 10.0015 20.5373C10.1418 20.7474 10.2167 20.9943 10.2167 21.2469C10.2167 21.5856 10.0821 21.9104 9.84265 22.1499C9.60315 22.3894 9.27832 22.5239 8.93962 22.5239ZM21.7104 22.5239C21.4579 22.5239 21.211 22.449 21.0009 22.3087C20.7909 22.1684 20.6272 21.9689 20.5306 21.7356C20.4339 21.5022 20.4086 21.2454 20.4579 20.9977C20.5072 20.75 20.6288 20.5224 20.8074 20.3438C20.986 20.1652 21.2136 20.0436 21.4613 19.9943C21.709 19.945 21.9658 19.9703 22.1992 20.067C22.4325 20.1636 22.632 20.3273 22.7723 20.5373C22.9126 20.7474 22.9875 20.9943 22.9875 21.2469C22.9875 21.5856 22.853 21.9104 22.6135 22.1499C22.374 22.3894 22.0492 22.5239 21.7104 22.5239ZM25.5417 18.6927H24.5456C24.1865 18.2976 23.7488 17.982 23.2606 17.766C22.7723 17.5499 22.2443 17.4384 21.7104 17.4384C21.1766 17.4384 20.6486 17.5499 20.1603 17.766C19.6721 17.982 19.2344 18.2976 18.8753 18.6927H11.7747C11.4156 18.2976 10.978 17.982 10.4897 17.766C10.0015 17.5499 9.4735 17.4384 8.93962 17.4384C8.40573 17.4384 7.87775 17.5499 7.38951 17.766C6.90128 17.982 6.46358 18.2976 6.10449 18.6927H5.10837V16.1385C5.10837 15.7998 5.24292 15.475 5.48241 15.2355C5.72191 14.996 6.04675 14.8614 6.38545 14.8614H24.2646C24.6033 14.8614 24.9282 14.996 25.1677 15.2355C25.4072 15.475 25.5417 15.7998 25.5417 16.1385V18.6927Z" fill="#ED017F"/>
</svg>
