<svg width="31" height="31" viewBox="0 0 31 31" fill="none" xmlns="http://www.w3.org/2000/svg">
<path d="M25.5416 10.3917L17.8791 3.67421C17.1767 3.04595 16.2673 2.69861 15.3249 2.69861C14.3825 2.69861 13.4732 3.04595 12.7708 3.67421L5.10826 10.3917C4.70262 10.7545 4.37892 11.1995 4.15871 11.6972C3.93851 12.1948 3.82685 12.7337 3.83118 13.2779V24.4396C3.83118 25.4557 4.23482 26.4302 4.95332 27.1487C5.67182 27.8672 6.64632 28.2708 7.66243 28.2708H22.9874C24.0035 28.2708 24.978 27.8672 25.6965 27.1487C26.415 26.4302 26.8187 25.4557 26.8187 24.4396V13.2651C26.8212 12.7231 26.7087 12.1867 26.4885 11.6913C26.2684 11.196 25.9456 10.753 25.5416 10.3917ZM17.8791 25.7167H12.7708V19.3313C12.7708 18.9925 12.9053 18.6677 13.1448 18.4282C13.3843 18.1887 13.7091 18.0542 14.0478 18.0542H16.602C16.9407 18.0542 17.2655 18.1887 17.505 18.4282C17.7445 18.6677 17.8791 18.9925 17.8791 19.3313V25.7167ZM24.2645 24.4396C24.2645 24.7783 24.13 25.1031 23.8905 25.3426C23.651 25.5821 23.3261 25.7167 22.9874 25.7167H20.4333V19.3313C20.4333 18.3151 20.0296 17.3406 19.3111 16.6222C18.5926 15.9037 17.6181 15.5 16.602 15.5H14.0478C13.0317 15.5 12.0572 15.9037 11.3387 16.6222C10.6202 17.3406 10.2166 18.3151 10.2166 19.3313V25.7167H7.66243C7.32372 25.7167 6.99889 25.5821 6.75939 25.3426C6.51989 25.1031 6.38534 24.7783 6.38534 24.4396V13.2651C6.38557 13.0838 6.42441 12.9046 6.49928 12.7394C6.57415 12.5743 6.68333 12.427 6.81955 12.3073L14.482 5.60261C14.7151 5.39787 15.0147 5.28495 15.3249 5.28495C15.6351 5.28495 15.9347 5.39787 16.1678 5.60261L23.8303 12.3073C23.9665 12.427 24.0757 12.5743 24.1506 12.7394C24.2254 12.9046 24.2643 13.0838 24.2645 13.2651V24.4396Z" fill="#ED017F"/>
</svg>
