<svg width="30" height="29" viewBox="0 0 30 29" fill="none" xmlns="http://www.w3.org/2000/svg">
<path d="M22.4033 14.0407C22.3458 13.8923 22.2596 13.7568 22.1496 13.6419L16.1079 7.60023C15.9953 7.48757 15.8615 7.3982 15.7143 7.33723C15.5671 7.27626 15.4093 7.24487 15.25 7.24487C14.9282 7.24487 14.6196 7.3727 14.3921 7.60023C14.2794 7.7129 14.1901 7.84665 14.1291 7.99385C14.0681 8.14105 14.0367 8.29882 14.0367 8.45815C14.0367 8.77993 14.1645 9.08853 14.3921 9.31607L18.3796 13.2915H9.20833C8.88786 13.2915 8.58052 13.4188 8.35391 13.6454C8.12731 13.872 8 14.1793 8 14.4998C8 14.8203 8.12731 15.1276 8.35391 15.3542C8.58052 15.5808 8.88786 15.7082 9.20833 15.7082H18.3796L14.3921 19.6836C14.2788 19.7959 14.1889 19.9295 14.1276 20.0768C14.0662 20.224 14.0347 20.382 14.0347 20.5415C14.0347 20.701 14.0662 20.8589 14.1276 21.0062C14.1889 21.1534 14.2788 21.2871 14.3921 21.3994C14.5044 21.5127 14.6381 21.6025 14.7853 21.6639C14.9325 21.7252 15.0905 21.7568 15.25 21.7568C15.4095 21.7568 15.5675 21.7252 15.7147 21.6639C15.8619 21.6025 15.9956 21.5127 16.1079 21.3994L22.1496 15.3577C22.2596 15.2428 22.3458 15.1073 22.4033 14.959C22.5242 14.6648 22.5242 14.3348 22.4033 14.0407Z" fill="#ED017F"/>
</svg>
